# Blender 3.6.4
# www.blender.org
mtllib tree.mtl
o upper-cone
v 0.000000 3.200000 0.000000
v 0.000000 2.200000 -0.614709
v 0.000000 2.320359 -0.677323
v 0.307354 2.200000 -0.532353
v 0.338662 2.320359 -0.586579
v 0.532353 2.200000 -0.307354
v 0.586579 2.320359 -0.338662
v 0.614709 2.200000 0.000000
v 0.677323 2.320359 0.000000
v 0.532353 2.200000 0.307354
v 0.586579 2.320359 0.338662
v 0.307354 2.200000 0.532353
v 0.338662 2.320359 0.586579
v 0.000000 2.200000 0.614709
v 0.000000 2.320359 0.677323
v -0.307354 2.200000 0.532353
v -0.338662 2.320359 0.586579
v -0.532353 2.200000 0.307354
v -0.586579 2.320359 0.338662
v -0.614709 2.200000 0.000000
v -0.677323 2.320359 0.000000
v -0.532353 2.200000 -0.307354
v -0.586579 2.320359 -0.338662
v -0.307354 2.200000 -0.532353
v -0.338662 2.320359 -0.586579
vn -0.4983 0.0812 -0.8632
vn -0.0000 1.0000 -0.0000
vn -0.0000 0.0812 -0.9967
vn 0.8632 0.0812 -0.4983
vn 0.9967 0.0812 -0.0000
vn 0.8632 0.0812 0.4983
vn 0.4983 0.0812 0.8632
vn -0.0000 0.0812 0.9967
vn -0.4983 0.0812 0.8632
vn -0.8632 0.0812 0.4983
vn -0.9967 0.0812 -0.0000
vn -0.8632 0.0812 -0.4983
vn 0.4983 0.0812 -0.8632
vn 0.2882 -0.8171 -0.4993
vn -0.0000 -0.8171 -0.5765
vn 0.4993 -0.8171 -0.2882
vn 0.5765 -0.8171 -0.0000
vn 0.4993 -0.8171 0.2882
vn 0.2882 -0.8171 0.4993
vn -0.0000 -0.8171 0.5765
vn -0.2882 -0.8171 0.4993
vn -0.4993 -0.8171 0.2882
vn -0.5765 -0.8171 -0.0000
vn -0.4993 -0.8171 -0.2882
vn -0.2882 -0.8171 -0.4993
vt 0.144443 0.432830
vt 0.250000 0.250000
vt 0.250000 0.461114
vt 0.432830 0.355557
vt 0.461114 0.250000
vt 0.432830 0.144443
vt 0.432830 0.144443
vt 0.355557 0.067170
vt 0.250000 0.038886
vt 0.250000 0.038886
vt 0.144443 0.067170
vt 0.144443 0.067170
vt 0.067170 0.144443
vt 0.038886 0.250000
vt 0.038886 0.250000
vt 0.067170 0.355557
vt 0.067170 0.355557
vt 0.355557 0.432830
vt 0.355557 0.432830
vt 0.757222 0.488065
vt 0.862778 0.459781
vt 0.845798 0.415928
vt 0.750000 0.441597
vt 0.875287 0.452560
vt 0.952560 0.375287
vt 0.915928 0.345799
vt 0.959781 0.362778
vt 0.988065 0.257222
vt 0.941597 0.250000
vt 0.988065 0.242778
vt 0.959781 0.137222
vt 0.915928 0.154201
vt 0.952560 0.124713
vt 0.875287 0.047440
vt 0.845799 0.084072
vt 0.862778 0.040219
vt 0.757222 0.011935
vt 0.750000 0.058403
vt 0.742778 0.011935
vt 0.637222 0.040219
vt 0.654201 0.084072
vt 0.624713 0.047440
vt 0.547440 0.124713
vt 0.584072 0.154201
vt 0.540219 0.137222
vt 0.511935 0.242778
vt 0.558403 0.250000
vt 0.511935 0.257222
vt 0.540219 0.362778
vt 0.584072 0.345799
vt 0.547440 0.375287
vt 0.624713 0.452560
vt 0.654201 0.415928
vt 0.637222 0.459781
vt 0.742778 0.488065
s 1
usemtl TreeGreen
f 25/1/1 1/2/2 3/3/3
f 7/4/4 1/2/2 9/5/5
f 9/5/5 1/2/2 11/6/6
f 11/7/6 1/2/2 13/8/7
f 13/8/7 1/2/2 15/9/8
f 15/10/8 1/2/2 17/11/9
f 17/12/9 1/2/2 19/13/10
f 19/13/10 1/2/2 21/14/11
f 21/15/11 1/2/2 23/16/12
f 23/17/12 1/2/2 25/1/1
f 3/3/3 1/2/2 5/18/13
f 5/19/13 1/2/2 7/4/4
f 3/20/3 5/21/13 4/22/14 2/23/15
f 5/24/13 7/25/4 6/26/16 4/22/14
f 7/27/4 9/28/5 8/29/17 6/26/16
f 9/30/5 11/31/6 10/32/18 8/29/17
f 11/33/6 13/34/7 12/35/19 10/32/18
f 13/36/7 15/37/8 14/38/20 12/35/19
f 15/39/8 17/40/9 16/41/21 14/38/20
f 17/42/9 19/43/10 18/44/22 16/41/21
f 19/45/10 21/46/11 20/47/23 18/44/22
f 21/48/11 23/49/12 22/50/24 20/47/23
f 23/51/12 25/52/1 24/53/25 22/50/24
f 25/54/1 3/55/3 2/23/15 24/53/25
f 2/23/15 4/22/14 6/26/16 8/29/17 10/32/18 12/35/19 14/38/20 16/41/21 18/44/22 20/47/23 22/50/24 24/53/25
o lower-cone
v 0.000000 2.200000 -0.318000
v 0.159000 2.200000 -0.275396
v 0.275396 2.200000 -0.159000
v 0.318000 2.200000 0.000000
v 0.275396 2.200000 0.159000
v 0.159000 2.200000 0.275396
v 0.000000 2.200000 0.318000
v -0.159000 2.200000 0.275396
v -0.275396 2.200000 0.159000
v -0.318000 2.200000 0.000000
v -0.275396 2.200000 -0.159000
v -0.159000 2.200000 -0.275396
v -0.000000 0.700000 -0.846823
v 0.000000 0.809703 -0.922316
v 0.423411 0.700000 -0.733370
v 0.461158 0.809703 -0.798749
v 0.733370 0.700000 -0.423411
v 0.798749 0.809703 -0.461158
v 0.846823 0.700000 -0.000000
v 0.922316 0.809703 0.000000
v 0.733370 0.700000 0.423411
v 0.798749 0.809703 0.461158
v 0.423411 0.700000 0.733370
v 0.461158 0.809703 0.798749
v 0.000000 0.700000 0.846823
v 0.000000 0.809703 0.922316
v -0.423411 0.700000 0.733370
v -0.461158 0.809703 0.798749
v -0.733370 0.700000 0.423411
v -0.798749 0.809703 0.461158
v -0.846823 0.700000 0.000000
v -0.922316 0.809703 0.000000
v -0.733370 0.700000 -0.423411
v -0.798749 0.809703 -0.461158
v -0.423411 0.700000 -0.733370
v -0.461158 0.809703 -0.798749
vn -0.4980 -0.0893 -0.8626
vn -0.3030 0.7955 -0.5248
vn -0.0000 0.7955 -0.6060
vn -0.0000 -0.0893 -0.9960
vn 0.8626 -0.0893 -0.4980
vn 0.5248 0.7955 -0.3030
vn 0.6060 0.7955 -0.0000
vn 0.9960 -0.0893 -0.0000
vn 0.5248 0.7955 0.3030
vn 0.8626 -0.0893 0.4980
vn 0.3030 0.7955 0.5248
vn 0.4980 -0.0893 0.8626
vn -0.0000 0.7955 0.6060
vn -0.0000 -0.0893 0.9960
vn -0.3030 0.7955 0.5248
vn -0.4980 -0.0893 0.8626
vn -0.5248 0.7955 0.3030
vn -0.8626 -0.0893 0.4980
vn -0.6060 0.7955 -0.0000
vn -0.9960 -0.0893 -0.0000
vn -0.5248 0.7955 -0.3030
vn -0.8626 -0.0893 -0.4980
vn 0.3030 0.7955 -0.5248
vn 0.4980 -0.0893 -0.8626
vn 0.2608 -0.8531 -0.4518
vn -0.0000 -0.8531 -0.5217
vn 0.4518 -0.8531 -0.2608
vn 0.5217 -0.8531 -0.0000
vn 0.4518 -0.8531 0.2608
vn 0.2608 -0.8531 0.4518
vn -0.0000 -0.8531 0.5217
vn -0.2608 -0.8531 0.4518
vn -0.4518 -0.8531 0.2608
vn -0.5217 -0.8531 -0.0000
vn -0.4518 -0.8531 -0.2608
vn -0.2608 -0.8531 -0.4518
vt 0.083333 0.536568
vt 0.083333 1.000000
vt 0.000000 1.000000
vt 0.000000 0.536568
vt 0.833333 0.536568
vt 0.833333 1.000000
vt 0.750000 1.000000
vt 0.750000 0.536568
vt 0.750000 0.536568
vt 0.666667 1.000000
vt 0.666667 0.536568
vt 0.666667 0.536568
vt 0.583333 1.000000
vt 0.583333 0.536568
vt 0.500000 1.000000
vt 0.500000 0.536568
vt 0.500000 0.536568
vt 0.416667 1.000000
vt 0.416667 0.536568
vt 0.416667 0.536568
vt 0.333333 1.000000
vt 0.333333 0.536568
vt 0.250000 1.000000
vt 0.250000 0.536568
vt 0.250000 0.536568
vt 0.166667 1.000000
vt 0.166667 0.536568
vt 0.166667 0.536568
vt 0.370000 0.457846
vt 0.250000 0.490000
vt 0.130000 0.457846
vt 0.042154 0.370000
vt 0.010000 0.250000
vt 0.042154 0.130000
vt 0.130000 0.042154
vt 0.250000 0.010000
vt 0.370000 0.042154
vt 0.457846 0.130000
vt 0.490000 0.250000
vt 0.457846 0.370000
vt 0.916667 0.536568
vt 0.916667 1.000000
vt 1.000000 0.536568
vt 1.000000 1.000000
vt 0.916667 0.536568
vt 0.752950 0.489210
vt 0.867051 0.458636
vt 0.854762 0.431452
vt 0.750000 0.459523
vt 0.872159 0.455687
vt 0.955687 0.372159
vt 0.931453 0.354762
vt 0.958636 0.367050
vt 0.989210 0.252950
vt 0.959523 0.250000
vt 0.989210 0.247050
vt 0.958636 0.132950
vt 0.931452 0.145238
vt 0.955687 0.127841
vt 0.872159 0.044313
vt 0.854762 0.068548
vt 0.867050 0.041364
vt 0.752950 0.010790
vt 0.750000 0.040477
vt 0.747050 0.010790
vt 0.632949 0.041364
vt 0.645238 0.068548
vt 0.627841 0.044313
vt 0.544313 0.127841
vt 0.568547 0.145238
vt 0.541364 0.132950
vt 0.510790 0.247050
vt 0.540477 0.250000
vt 0.510790 0.252950
vt 0.541364 0.367050
vt 0.568548 0.354762
vt 0.544313 0.372159
vt 0.627841 0.455687
vt 0.645238 0.431452
vt 0.632950 0.458636
vt 0.747051 0.489210
s 1
usemtl TreeGreen
f 61/56/26 37/57/27 26/58/28 39/59/29
f 43/60/30 28/61/31 29/62/32 45/63/33
f 45/64/33 29/62/32 30/65/34 47/66/35
f 47/67/35 30/65/34 31/68/36 49/69/37
f 49/69/37 31/68/36 32/70/38 51/71/39
f 51/72/39 32/70/38 33/73/40 53/74/41
f 53/75/41 33/73/40 34/76/42 55/77/43
f 55/77/43 34/76/42 35/78/44 57/79/45
f 57/80/45 35/78/44 36/81/46 59/82/47
f 59/83/47 36/81/46 37/57/27 61/56/26
f 27/84/48 26/85/28 37/86/27 36/87/46 35/88/44 34/89/42 33/90/40 32/91/38 31/92/36 30/93/34 29/94/32 28/95/31
f 41/96/49 27/97/48 28/61/31 43/60/30
f 39/98/29 26/99/28 27/97/48 41/100/49
f 39/101/29 41/102/49 40/103/50 38/104/51
f 41/105/49 43/106/30 42/107/52 40/103/50
f 43/108/30 45/109/33 44/110/53 42/107/52
f 45/111/33 47/112/35 46/113/54 44/110/53
f 47/114/35 49/115/37 48/116/55 46/113/54
f 49/117/37 51/118/39 50/119/56 48/116/55
f 51/120/39 53/121/41 52/122/57 50/119/56
f 53/123/41 55/124/43 54/125/58 52/122/57
f 55/126/43 57/127/45 56/128/59 54/125/58
f 57/129/45 59/130/47 58/131/60 56/128/59
f 59/132/47 61/133/26 60/134/61 58/131/60
f 61/135/26 39/136/29 38/104/51 60/134/61
f 38/104/51 40/103/50 42/107/52 44/110/53 46/113/54 48/116/55 50/119/56 52/122/57 54/125/58 56/128/59 58/131/60 60/134/61
o trunk
v 0.000000 0.000000 -0.250000
v 0.000000 0.700000 -0.250000
v 0.125000 0.000000 -0.216506
v 0.125000 0.700000 -0.216506
v 0.216506 0.000000 -0.125000
v 0.216506 0.700000 -0.125000
v 0.250000 0.000000 0.000000
v 0.250000 0.700000 0.000000
v 0.216506 0.000000 0.125000
v 0.216506 0.700000 0.125000
v 0.125000 0.000000 0.216506
v 0.125000 0.700000 0.216506
v 0.000000 0.000000 0.250000
v 0.000000 0.700000 0.250000
v -0.125000 0.000000 0.216506
v -0.125000 0.700000 0.216506
v -0.216506 0.000000 0.125000
v -0.216506 0.700000 0.125000
v -0.250000 0.000000 0.000000
v -0.250000 0.700000 0.000000
v -0.216506 0.000000 -0.125000
v -0.216506 0.700000 -0.125000
v -0.125000 0.000000 -0.216506
v -0.125000 0.700000 -0.216506
vn -0.0000 -0.6532 -0.7572
vn -0.0000 0.6532 -0.7572
vn 0.3786 0.6532 -0.6557
vn 0.3786 -0.6532 -0.6557
vn 0.6557 0.6532 -0.3786
vn 0.6557 -0.6532 -0.3786
vn 0.7572 0.6532 -0.0000
vn 0.7572 -0.6532 -0.0000
vn 0.6557 0.6532 0.3786
vn 0.6557 -0.6532 0.3786
vn 0.3786 0.6532 0.6557
vn 0.3786 -0.6532 0.6557
vn -0.0000 0.6532 0.7572
vn -0.0000 -0.6532 0.7572
vn -0.3786 0.6532 0.6557
vn -0.3786 -0.6532 0.6557
vn -0.6557 0.6532 0.3786
vn -0.6557 -0.6532 0.3786
vn -0.7572 0.6532 -0.0000
vn -0.7572 -0.6532 -0.0000
vn -0.6557 0.6532 -0.3786
vn -0.6557 -0.6532 -0.3786
vn -0.3786 0.6532 -0.6557
vn -0.3786 -0.6532 -0.6557
vt 1.000000 0.500000
vt 1.000000 1.000000
vt 0.916667 1.000000
vt 0.916667 0.500000
vt 0.833333 1.000000
vt 0.833333 0.500000
vt 0.750000 1.000000
vt 0.750000 0.500000
vt 0.666667 1.000000
vt 0.666667 0.500000
vt 0.583333 1.000000
vt 0.583333 0.500000
vt 0.500000 1.000000
vt 0.500000 0.500000
vt 0.416667 1.000000
vt 0.416667 0.500000
vt 0.333333 1.000000
vt 0.333333 0.500000
vt 0.250000 1.000000
vt 0.250000 0.500000
vt 0.166667 1.000000
vt 0.166667 0.500000
vt 0.370000 0.457846
vt 0.250000 0.490000
vt 0.130000 0.457846
vt 0.042154 0.370000
vt 0.010000 0.250000
vt 0.042154 0.130000
vt 0.130000 0.042154
vt 0.250000 0.010000
vt 0.370000 0.042154
vt 0.457846 0.130000
vt 0.490000 0.250000
vt 0.457846 0.370000
vt 0.083333 1.000000
vt 0.083333 0.500000
vt 0.000000 1.000000
vt 0.000000 0.500000
vt 0.750000 0.490000
vt 0.870000 0.457846
vt 0.957846 0.370000
vt 0.990000 0.250000
vt 0.957846 0.130000
vt 0.870000 0.042154
vt 0.750000 0.010000
vt 0.630000 0.042154
vt 0.542154 0.130000
vt 0.510000 0.250000
vt 0.542154 0.370000
vt 0.630000 0.457846
s 1
usemtl TrunkBrown
f 62/137/62 63/138/63 65/139/64 64/140/65
f 64/140/65 65/139/64 67/141/66 66/142/67
f 66/142/67 67/141/66 69/143/68 68/144/69
f 68/144/69 69/143/68 71/145/70 70/146/71
f 70/146/71 71/145/70 73/147/72 72/148/73
f 72/148/73 73/147/72 75/149/74 74/150/75
f 74/150/75 75/149/74 77/151/76 76/152/77
f 76/152/77 77/151/76 79/153/78 78/154/79
f 78/154/79 79/153/78 81/155/80 80/156/81
f 80/156/81 81/155/80 83/157/82 82/158/83
f 65/159/64 63/160/63 85/161/84 83/162/82 81/163/80 79/164/78 77/165/76 75/166/74 73/167/72 71/168/70 69/169/68 67/170/66
f 82/158/83 83/157/82 85/171/84 84/172/85
f 84/172/85 85/171/84 63/173/63 62/174/62
f 62/175/62 64/176/65 66/177/67 68/178/69 70/179/71 72/180/73 74/181/75 76/182/77 78/183/79 80/184/81 82/185/83 84/186/85
